<?xml version="1.0" encoding="utf-8"?>
<!-- Generator: Adobe Illustrator 26.3.1, SVG Export Plug-In . SVG Version: 6.00 Build 0)  -->
<svg version="1.1" id="Layer_1" xmlns="http://www.w3.org/2000/svg" xmlns:xlink="http://www.w3.org/1999/xlink" x="0px" y="0px"
	 viewBox="0 0 20 20" style="enable-background:new 0 0 20 20;" xml:space="preserve">
<style type="text/css">
	.st0{fill:#4691f6;}
</style>
<path class="st0" d="M17.2,5l-4.4-4.4c-0.2-0.2-0.4-0.2-0.6-0.2H3.3c-0.4,0-0.8,0.4-0.8,0.8v17.6c0,0.4,0.4,0.8,0.8,0.8h13.3
	c0.4,0,0.8-0.4,0.8-0.8V5.6C17.5,5.4,17.4,5.2,17.2,5z M15.8,18H4.2V2h7.7l4,3.9V18z"/>
<path class="st0" d="M5.1,7.3c0,0.4,0.4,0.8,0.8,0.8H14c0.4,0,0.8-0.4,0.8-0.8S14.4,6.5,14,6.5H5.9C5.5,6.5,5.1,6.9,5.1,7.3z"/>
<path class="st0" d="M5.9,5.3h4.3c0.4,0,0.8-0.4,0.8-0.8c0-0.4-0.4-0.8-0.8-0.8H5.9c-0.4,0-0.8,0.4-0.8,0.8S5.5,5.3,5.9,5.3z"/>
<path class="st0" d="M14,9.2H5.9c-0.4,0-0.8,0.4-0.8,0.8c0,0.4,0.4,0.8,0.8,0.8H14c0.4,0,0.8-0.4,0.8-0.8C14.8,9.6,14.4,9.2,14,9.2z
	"/>
<path class="st0" d="M14,11.9H5.9c-0.4,0-0.8,0.4-0.8,0.8c0,0.4,0.4,0.8,0.8,0.8H14c0.4,0,0.8-0.4,0.8-0.8
	C14.8,12.3,14.4,11.9,14,11.9z"/>
<path class="st0" d="M14,14.7H5.9c-0.4,0-0.8,0.4-0.8,0.8s0.4,0.8,0.8,0.8H14c0.4,0,0.8-0.4,0.8-0.8C14.8,15,14.4,14.7,14,14.7z"/>
</svg>
